<?xml version="1.0" standalone="no"?>
<!DOCTYPE svg PUBLIC "-//W3C//DTD SVG 20010904//EN"
 "http://www.w3.org/TR/2001/REC-SVG-20010904/DTD/svg10.dtd">
<svg version="1.0" xmlns="http://www.w3.org/2000/svg"
 width="48.000000pt" height="48.000000pt" viewBox="0 0 48.000000 48.000000"
 preserveAspectRatio="xMidYMid meet">

<g transform="translate(0.000000,48.000000) scale(0.100000,-0.100000)"
fill="#000000" stroke="none">
<path d="M47 392 c-14 -15 -17 -42 -17 -154 0 -120 2 -137 19 -152 13 -11 31
-16 55 -14 48 4 47 22 -1 28 l-38 5 0 135 0 135 113 3 c90 2 112 5 112 17 0
12 -20 15 -113 15 -98 0 -116 -3 -130 -18z"/>
<path d="M345 400 c-7 -11 6 -17 45 -22 l25 -3 0 -135 0 -135 -112 -3 c-91 -2
-113 -5 -113 -17 0 -12 20 -15 113 -15 151 0 147 -5 147 172 0 118 -2 137 -18
151 -20 19 -77 23 -87 7z"/>
<path d="M310 335 c0 -8 5 -15 12 -15 6 0 0 -13 -15 -28 -49 -51 -26 -74 25
-25 15 15 28 21 28 15 0 -7 7 -12 15 -12 11 0 15 11 15 40 l0 40 -40 0 c-29 0
-40 -4 -40 -15z"/>
<path d="M70 225 c0 -11 19 -15 88 -17 l87 -3 3 -42 c2 -29 8 -43 18 -43 22 0
19 82 -4 103 -25 23 -192 25 -192 2z"/>
</g>
</svg>
