<?xml version="1.0" standalone="no"?>
<!DOCTYPE svg PUBLIC "-//W3C//DTD SVG 20010904//EN"
 "http://www.w3.org/TR/2001/REC-SVG-20010904/DTD/svg10.dtd">
<svg version="1.0" xmlns="http://www.w3.org/2000/svg"
 width="48.000000pt" height="48.000000pt" viewBox="0 0 48.000000 48.000000"
 preserveAspectRatio="xMidYMid meet">

<g transform="translate(0.000000,48.000000) scale(0.100000,-0.100000)"
fill="#000000" stroke="none">
<path d="M47 392 c-14 -15 -17 -42 -17 -154 0 -174 -6 -168 158 -168 102 0
122 2 122 15 0 8 -7 15 -15 15 -11 0 -15 13 -15 53 0 75 -17 89 -106 85 -88
-4 -86 -21 3 -28 l68 -5 3 -53 3 -53 -93 3 -93 3 0 135 0 135 33 3 c20 2 32 9
32 18 0 21 -63 18 -83 -4z"/>
<path d="M180 395 c0 -12 22 -15 118 -17 l117 -3 0 -135 0 -135 -37 -3 c-53
-4 -52 -32 0 -32 65 0 72 16 72 172 0 173 5 168 -153 168 -96 0 -117 -3 -117
-15z"/>
<path d="M337 323 c-15 -15 -27 -22 -27 -15 0 6 -7 12 -15 12 -11 0 -15 -11
-15 -40 l0 -40 40 0 c29 0 40 4 40 15 0 8 -5 15 -12 15 -6 0 0 13 15 28 49 51
24 75 -26 25z"/>
</g>
</svg>
